<?xml version="1.0" encoding="UTF-8" standalone="no"?>
<!-- Created with Inkscape (http://www.inkscape.org/) -->

<svg
   width="135.46667mm"
   height="135.46664mm"
   viewBox="0 0 135.46667 135.46664"
   version="1.1"
   id="svg5"
   xml:space="preserve"
   sodipodi:docname="stream-logo.svg"
   inkscape:version="1.2.2 (732a01da63, 2022-12-09)"
   xmlns:inkscape="http://www.inkscape.org/namespaces/inkscape"
   xmlns:sodipodi="http://sodipodi.sourceforge.net/DTD/sodipodi-0.dtd"
   xmlns="http://www.w3.org/2000/svg"
   xmlns:svg="http://www.w3.org/2000/svg"><sodipodi:namedview
     id="namedview19592"
     pagecolor="#ffffff"
     bordercolor="#000000"
     borderopacity="0.25"
     inkscape:showpageshadow="2"
     inkscape:pageopacity="0.0"
     inkscape:pagecheckerboard="0"
     inkscape:deskcolor="#d1d1d1"
     inkscape:document-units="mm"
     showgrid="false"
     inkscape:zoom="0.7091785"
     inkscape:cx="-12.69074"
     inkscape:cy="238.3039"
     inkscape:window-width="2560"
     inkscape:window-height="1334"
     inkscape:window-x="-11"
     inkscape:window-y="-11"
     inkscape:window-maximized="1"
     inkscape:current-layer="svg5" /><defs
     id="defs2" /><g
     id="g74"
     transform="matrix(0.26458333,0,0,0.26458333,-1.4494398e-6,4.0997387e-6)"
     style="fill:#8d5fd3;fill-opacity:1;stroke-width:5;stroke-dasharray:none"><circle
       style="fill:#ff9999;fill-opacity:1"
       cx="256"
       cy="256"
       r="256"
       id="circle9" /></g><g
     id="layer1"
     transform="translate(-26.243477,-66.387519)"><g
       id="layer2"
       style="fill:#000000;stroke-width:5;stroke-dasharray:none"
       inkscape:label="layer2"><ellipse
         style="fill:#000000;fill-opacity:0;stroke:#f2f2f2;stroke-width:4.66719;stroke-dasharray:none;stroke-opacity:1"
         id="path12313"
         cx="128.54004"
         cy="-93.33358"
         rx="38.05154"
         ry="38.881077"
         transform="matrix(0.01480536,0.99989039,-0.99999766,0.00216355,0,0)" /><ellipse
         style="fill:#000000;fill-opacity:0;stroke:#f2f2f2;stroke-width:3.00006;stroke-dasharray:none;stroke-opacity:1"
         id="path12313-8"
         cx="138.33418"
         cy="-93.82547"
         rx="38.152416"
         ry="31.00926"
         transform="matrix(0.01177665,0.99993065,-0.9999963,0.00272007,0,0)"
         inkscape:label="path12313-8" /><ellipse
         style="fill:#000000;fill-opacity:0;stroke:#f2f2f2;stroke-width:1.92198;stroke-dasharray:none;stroke-opacity:1"
         id="path12313-8-0"
         cx="147.56512"
         cy="-94.161797"
         rx="38.317341"
         ry="23.889578"
         transform="matrix(0.00903366,0.9999592,-0.99999371,0.00354608,0,0)"
         inkscape:label="path12313-8-0" /><rect
         style="fill:#ff9999;fill-opacity:1;fill-rule:evenodd;stroke-width:3.09589"
         id="rect13475"
         width="105.26582"
         height="44.246349"
         x="43.252972"
         y="115.04529" /><rect
         style="fill:#ff9999;fill-opacity:1;fill-rule:evenodd;stroke-width:3.09589;stroke-dasharray:none"
         id="rect13475-3"
         width="105.26582"
         height="44.246349"
         x="103.95483"
         y="49.495251"
         transform="rotate(31.783234)" /><ellipse
         style="fill:#ff9999;fill-opacity:1;stroke:#000000;stroke-width:0;stroke-dasharray:none;stroke-opacity:1"
         id="path13477"
         cx="94.927216"
         cy="165.41772"
         rx="37.37804"
         ry="35.859783" /><rect
         style="fill:#ff9999;fill-opacity:1;fill-rule:evenodd;stroke-width:1.43228;stroke-dasharray:none"
         id="rect13475-3-4-1"
         width="22.896412"
         height="43.539608"
         x="-195.75081"
         y="-319.60773"
         transform="matrix(-0.56527189,0.82490466,-0.02278872,-0.9997403,0,0)" /><rect
         style="fill:#ff9999;fill-opacity:1;fill-rule:evenodd;stroke-width:2.00837;stroke-dasharray:none"
         id="rect13475-3-4"
         width="44.915104"
         height="43.640263"
         x="-155.56569"
         y="-220.07982"
         transform="matrix(-0.9072868,0.42051238,-0.07158619,-0.99743442,0,0)" /><rect
         style="fill:#ff9999;fill-opacity:1;fill-rule:evenodd;stroke-width:1.95495;stroke-dasharray:none"
         id="rect13475-3-4-0"
         width="42.57119"
         height="43.626453"
         x="-130.17329"
         y="-215.7448"
         transform="matrix(-0.89619259,0.44366523,-0.06704198,-0.99775016,0,0)" /></g><g
       style="fill:#ffffff;stroke-width:0.76369;stroke-dasharray:none;fill-opacity:1"
       id="g278"
       transform="matrix(4.6326886,0,0,2.7537574,48.76073,117.07973)"><path
         d="m 9.7,20.418958 -9,-3.078061 C 0.3,17.238295 0,16.827887 0,16.417479 V 1.0271765 C 0,0.30896237 0.7,-0.20404771 1.3,0.10375834 L 10,2.9766148 18.7,0.00115632 C 19.3,-0.20404771 20,0.30896237 20,1.0271765 V 16.417479 c 0,0.410408 -0.3,0.820816 -0.7,0.923418 l -9,3.078061 c -0.2,0.102602 -0.4,0.102602 -0.6,0 z M 2,15.699265 l 8,2.770254 8,-2.770254 V 2.4636047 l -7.7,2.6676525 c -0.2,0 -0.4,0 -0.6,-0.1026021 L 2,2.4636047 Z"
         id="path267"
         style="stroke-width:0.77357334;stroke-dasharray:none;fill:#f2f2f2;fill-opacity:1" /><path
         d="M 10,16 C 9.4,16 9,15.6 9,15 V 8 c 0,-0.6 0.4,-1 1,-1 0.6,0 1,0.4 1,1 v 7 c 0,0.6 -0.4,1 -1,1 z"
         id="path269"
         style="stroke-width:0.76369;stroke-dasharray:none;fill:#f2f2f2;fill-opacity:1" /></g></g><style
     id="style576">.st6{fill:#1d1d1b}</style></svg>
